<svg xmlns="http://www.w3.org/2000/svg" version="1.1" xmlns:xlink="http://www.w3.org/1999/xlink" width="512" height="512" x="0" y="0" viewBox="0 0 512 512" style="enable-background:new 0 0 512 512" xml:space="preserve" class=""><g><path d="M206.525 113.095V21.513h-85.268v91.582c0 21.767-14.907 40.703-36.065 45.813l-29.895 7.22c-21.159 5.11-36.065 24.046-36.065 45.813v272.498C19.232 499.66 31.571 512 46.793 512h234.199c15.221 0 27.561-12.339 27.561-27.561V211.941c0-21.767-14.907-40.703-36.065-45.813l-29.895-7.22c-21.161-5.111-36.068-24.046-36.068-45.813z" style="" fill="#77d057" data-original="#77d057" class=""></path><path d="m272.486 166.128-29.895-7.22c-21.159-5.11-36.065-24.046-36.065-45.813V21.513h-58.949v110.048c0 21.767 14.907 40.703 36.065 45.813l29.895 7.22c21.159 5.11 36.065 24.046 36.065 45.813v272.498c0 3.188-.548 6.247-1.543 9.095h32.932c15.221 0 27.561-12.339 27.561-27.561V211.941c-.001-21.767-14.907-40.702-36.066-45.813z" style="" fill="#67bc44" data-original="#67bc44"></path><path d="M210.59 62.778h-93.397a7.994 7.994 0 0 1-7.994-7.994V7.994A7.994 7.994 0 0 1 117.193 0h93.397a7.994 7.994 0 0 1 7.994 7.994v46.789a7.994 7.994 0 0 1-7.994 7.995z" style="" fill="#4a4256" data-original="#4a4256"></path><path d="M210.59 0h-51.133v62.778h51.133a7.994 7.994 0 0 0 7.994-7.994V7.994A7.994 7.994 0 0 0 210.59 0z" style="" fill="#352f3f" data-original="#352f3f"></path><path d="M209.58 129.771a47.024 47.024 0 0 1-3.055-16.677V95.547h-85.268v17.548c0 5.834-1.08 11.461-3.055 16.677h91.378v-.001zM252.819 420.085H74.963c-5.429 0-9.83-4.401-9.83-9.83V260.374c0-5.429 4.401-9.83 9.83-9.83h177.856c5.429 0 9.83 4.401 9.83 9.83v149.881c-.001 5.429-4.401 9.83-9.83 9.83z" style="" fill="#306318" data-original="#306318" class=""></path><path d="M252.819 250.544h-49.031v169.54h49.031c5.429 0 9.829-4.401 9.829-9.83v-149.88c0-5.429-4.4-9.83-9.829-9.83z" style="" fill="#2c5114" data-original="#2c5114" class=""></path><path d="M92.841 389.357V281.271a3.02 3.02 0 0 1 3.02-3.02h136.06a3.02 3.02 0 0 1 3.02 3.02v108.086a3.02 3.02 0 0 1-3.02 3.02H95.862a3.02 3.02 0 0 1-3.021-3.02z" style="" fill="#fed130" data-original="#fed130"></path><path d="M231.922 278.251h-55.574v114.127h55.574a3.02 3.02 0 0 0 3.02-3.02V281.271a3.02 3.02 0 0 0-3.02-3.02z" style="" fill="#efbe25" data-original="#efbe25"></path><path d="M256.256 465.252H71.525a7.737 7.737 0 0 1 0-15.474h184.731c4.274 0 7.737 3.464 7.737 7.737s-3.463 7.737-7.737 7.737z" style="" fill="#ffffff" data-original="#ffffff"></path><path d="M121.259 62.778h85.27v32.769h-85.27z" style="" fill="#e5f9f6" data-original="#e5f9f6"></path><path d="M431.888 492.938c0 6.972-8.928 11.856-15.977 3.843v-99.342c7.048-8.013 15.977-3.129 15.977 3.843v91.656z" style="" fill="#d6e5e2" data-original="#d6e5e2"></path><path d="M471.247 508.514s-40.57-18.661-47.348-18.661-47.348 18.661-47.348 18.661c-1.199.768-.838 3.486.463 3.486h93.77c1.301 0 1.662-2.717.463-3.486z" style="" fill="#d6e5e2" data-original="#d6e5e2"></path><path d="m355.072 250.262 21.097 128.497a40.006 40.006 0 0 0 12.07 22.662l29.776 28.005a8.592 8.592 0 0 0 11.771 0l29.776-28.005a40.012 40.012 0 0 0 12.07-22.662l21.097-128.497a2.931 2.931 0 0 0-2.893-3.406h-131.87a2.932 2.932 0 0 0-2.894 3.406z" style="" fill="#e5f9f6" data-original="#e5f9f6"></path><path d="M489.835 246.856H434.16l-21.816 132.883a37.084 37.084 0 0 1-11.185 21.002l-6.821 6.416 23.678 22.27a8.592 8.592 0 0 0 11.771 0l29.776-28.005a40.012 40.012 0 0 0 12.07-22.662l21.097-128.497a2.935 2.935 0 0 0-2.895-3.407zM471.247 508.514s-40.57-18.661-47.348-18.661-47.348 18.661-47.348 18.661c-1.199.768-.838 3.486.463 3.486h93.77c1.301 0 1.662-2.717.463-3.486z" style="" fill="#d6e5e2" data-original="#d6e5e2"></path><path d="m370.851 346.369 5.318 32.391a40.006 40.006 0 0 0 12.07 22.662l29.776 28.005a8.592 8.592 0 0 0 11.771 0l29.776-28.005a40.012 40.012 0 0 0 12.07-22.662l5.318-32.391H370.851z" style="" fill="#77d057" data-original="#77d057" class=""></path><path d="m417.822 346.369-5.479 33.37a37.084 37.084 0 0 1-11.185 21.002l-6.821 6.416 23.678 22.27a8.592 8.592 0 0 0 11.771 0l29.776-28.005a40.012 40.012 0 0 0 12.07-22.662l5.318-32.391h-59.128z" style="" fill="#67bc44" data-original="#67bc44"></path><path d="M208.871 127.762a46.295 46.295 0 0 1-.575-1.889l-.045-.16c-.166-.598-.32-1.2-.463-1.807-.021-.09-.044-.18-.064-.27a49.072 49.072 0 0 1-.358-1.713l-.074-.38a45.799 45.799 0 0 1-.262-1.618c-.024-.163-.051-.325-.073-.488a46.118 46.118 0 0 1-.178-1.544c-.02-.189-.044-.378-.061-.568a48.793 48.793 0 0 1-.107-1.538c-.011-.193-.028-.384-.037-.578a47.557 47.557 0 0 1-.047-2.038l-.002-.075V95.547h-58.949v34.225h62.004l-.001-.002a46.478 46.478 0 0 1-.686-1.941l-.022-.067z" style="" fill="#2c5114" data-original="#2c5114" class=""></path><path d="M147.579 62.778h58.949v32.769h-58.949z" style="" fill="#d6e5e2" data-original="#d6e5e2"></path></g></svg>