<svg xmlns="http://www.w3.org/2000/svg" version="1.1" xmlns:xlink="http://www.w3.org/1999/xlink" width="512" height="512" x="0" y="0" viewBox="0 0 512 512" style="enable-background:new 0 0 512 512" xml:space="preserve" class=""><g><circle cx="256" cy="256" r="256" style="" fill="#b9eaff" data-original="#b9eaff" class=""></circle><path d="M512 256c0-9.861-.577-19.585-1.662-29.156L408.186 124.693 103.814 201.9l137.242 137.242-137.242 54.746L219.296 509.37A258.012 258.012 0 0 0 256 512c141.385 0 256-114.615 256-256z" style="" fill="#35ccff" data-original="#35ccff" class=""></path><path d="M103.81 124.69h304.37v77.21H103.81z" style="" fill="#333333" data-original="#333333"></path><path d="M255.67 124.69h152.52v77.21H255.67z" style="" fill="#1a1a1a" data-original="#1a1a1a" class=""></path><path d="M353.99 149.19h28.21v28.21h-28.21z" style="" fill="#8cc63f" data-original="#8cc63f"></path><path d="M314.83 149.19h28.21v28.21h-28.21z" style="" fill="#ffdc00" data-original="#ffdc00"></path><path d="M103.81 217.4h304.37v77.21H103.81z" style="" fill="#333333" data-original="#333333"></path><path d="M255.67 217.4h152.52v77.21H255.67z" style="" fill="#1a1a1a" data-original="#1a1a1a" class=""></path><path d="M353.99 241.9h28.21v28.21h-28.21z" style="" fill="#8cc63f" data-original="#8cc63f"></path><path d="M314.83 241.9h28.21v28.21h-28.21z" style="" fill="#ffdc00" data-original="#ffdc00"></path><path d="M103.81 310.1h304.37v77.21H103.81z" style="" fill="#333333" data-original="#333333"></path><path d="M255.67 310.1h152.52v77.21H255.67z" style="" fill="#1a1a1a" data-original="#1a1a1a" class=""></path><path d="M353.99 334.6h28.21v28.21h-28.21z" style="" fill="#8cc63f" data-original="#8cc63f"></path><path d="M314.83 334.6h28.21v28.21h-28.21z" style="" fill="#ffdc00" data-original="#ffdc00"></path><circle cx="172.53" cy="334.31" r="90.94" style="" fill="#39b54a" data-original="#39b54a"></circle><path d="M172.526 243.365c-.287 0-.573.008-.859.011v181.867c.287.003.572.011.859.011 50.227 0 90.944-40.717 90.944-90.944 0-50.228-40.717-90.945-90.944-90.945z" style="" fill="#009245" data-original="#009245"></path><path d="m152.566 388.562-43.694-43.693 16.597-16.596 27.097 27.098 67.017-67.017 16.597 16.596z" style="" fill="#ffffff" data-original="#ffffff"></path><path d="m219.583 288.354-47.916 47.917v33.191l64.513-64.513z" style="" fill="#e0e0e0" data-original="#e0e0e0"></path></g></svg>