<?xml version="1.0" standalone="no"?>
<!DOCTYPE svg PUBLIC "-//W3C//DTD SVG 20010904//EN"
 "http://www.w3.org/TR/2001/REC-SVG-20010904/DTD/svg10.dtd">
<svg version="1.0" xmlns="http://www.w3.org/2000/svg"
 width="419.000000pt" height="419.000000pt" viewBox="0 0 419.000000 419.000000"
 preserveAspectRatio="xMidYMid meet">

<g transform="translate(0.000000,419.000000) scale(0.100000,-0.100000)"
fill="#4267cf" stroke="none">
<path d="M707 4180 c-287 -34 -536 -223 -643 -488 -63 -157 -59 -47 -59 -1597
0 -1311 1 -1415 18 -1478 73 -286 299 -517 575 -588 73 -18 125 -19 1497 -19
1385 0 1424 1 1499 20 221 56 422 226 520 442 70 151 66 63 66 1631 l0 1415
-25 86 c-82 282 -281 476 -570 558 l-80 23 -1365 1 c-751 1 -1396 -2 -1433 -6z
m738 -180 c37 -18 128 -101 355 -327 l305 -302 305 303 c357 354 352 351 505
351 87 0 106 -3 149 -25 136 -69 219 -225 196 -368 -18 -109 -27 -120 -509
-603 -434 -434 -459 -458 -516 -479 -107 -39 -230 -28 -316 29 -24 17 -243
229 -485 473 -412 414 -443 447 -463 501 -15 41 -21 81 -21 136 0 70 4 86 36
150 41 82 117 151 194 176 70 23 202 15 265 -15z m-807 -763 c24 -8 60 -27 80
-41 20 -14 231 -220 469 -458 496 -498 488 -487 488 -638 0 -153 10 -139 -503
-652 -513 -513 -500 -503 -652 -503 -71 0 -94 4 -142 27 -79 37 -140 96 -174
171 -25 53 -29 75 -29 147 0 145 6 154 357 507 l302 303 -301 303 c-352 352
-358 361 -358 507 0 97 20 153 81 227 87 106 247 148 382 100z m3137 9 c72
-19 112 -42 163 -94 105 -108 128 -270 60 -407 -12 -24 -142 -163 -321 -342
l-301 -303 301 -302 c177 -179 309 -319 321 -343 91 -181 17 -398 -166 -483
-48 -23 -71 -27 -142 -27 -152 0 -140 -9 -648 498 -512 511 -507 505 -507 657
0 151 -9 140 493 643 240 241 456 450 480 464 83 49 177 63 267 39z m-1520
-1606 c39 -19 149 -123 483 -455 238 -236 449 -454 468 -482 65 -98 75 -226
25 -338 -30 -67 -115 -148 -184 -173 -78 -30 -185 -30 -264 -1 -53 20 -83 47
-363 325 -169 167 -310 304 -315 304 -5 0 -146 -137 -315 -304 -283 -281 -309
-305 -365 -326 -79 -29 -217 -25 -282 8 -54 28 -136 108 -161 158 -47 93 -47
224 0 318 23 46 855 888 927 938 65 46 114 58 211 55 65 -2 97 -9 135 -27z"/>
</g>
</svg>
