<svg xmlns="http://www.w3.org/2000/svg" width="419" height="419" viewBox="0 0 419 419" version="1.1"><path d="M 0 209.502 L 0 419.005 209.750 418.752 L 419.500 418.500 419.752 209.250 L 420.005 0 210.002 0 L 0 0 0 209.502 M 0.491 210 C 0.491 325.225, 0.607 372.363, 0.750 314.750 C 0.893 257.138, 0.893 162.863, 0.750 105.250 C 0.607 47.638, 0.491 94.775, 0.491 210 M 119 18.545 C 116.525 19.318, 111.947 21.966, 108.827 24.429 C 104.387 27.935, 102.355 30.526, 99.471 36.361 C 95.966 43.454, 95.804 44.220, 96.144 52.158 C 96.425 58.733, 97.075 61.665, 99.214 66 C 101.423 70.476, 110.361 79.905, 147.214 116.635 C 190.198 159.476, 192.805 161.883, 198.500 163.972 C 203.267 165.720, 206.145 166.104, 212.500 165.836 C 218.711 165.575, 221.730 164.895, 226 162.794 C 230.491 160.584, 239.669 151.871, 276.038 115.294 C 309.854 81.284, 321.169 69.296, 323.038 65.500 C 325.131 61.249, 325.500 59.077, 325.497 51 C 325.495 42.911, 325.140 40.834, 323.110 37.020 C 321.798 34.556, 319.349 30.828, 317.668 28.736 C 315.986 26.644, 312.561 23.680, 310.055 22.150 C 307.550 20.620, 303.357 18.775, 300.737 18.050 C 297.858 17.254, 293.255 16.928, 289.095 17.225 C 284.865 17.528, 280.344 18.607, 277.357 20.026 C 273.747 21.742, 264.601 30.177, 241.728 52.889 L 210.956 83.443 181.228 53.824 C 164.878 37.534, 149.700 23.122, 147.500 21.797 C 145.300 20.473, 141.648 18.852, 139.384 18.195 C 137.120 17.538, 132.620 17.031, 129.384 17.070 C 126.148 17.108, 121.475 17.772, 119 18.545 M 44.972 95.359 C 41.932 96.014, 37.348 97.778, 34.785 99.280 C 32.222 100.782, 28.530 103.957, 26.581 106.335 C 24.633 108.713, 22.062 112.865, 20.870 115.562 C 19.246 119.231, 18.688 122.511, 18.650 128.603 C 18.604 135.784, 18.970 137.492, 21.759 143.121 C 24.460 148.570, 29.298 153.870, 54.939 179.472 L 84.957 209.445 54.505 240.043 C 28.599 266.074, 23.654 271.515, 21.378 276.486 C 19.200 281.243, 18.693 283.836, 18.656 290.415 C 18.618 297.168, 19.063 299.488, 21.356 304.500 C 22.866 307.800, 25.938 312.378, 28.183 314.673 C 30.428 316.968, 35.018 320.114, 38.383 321.663 C 43.466 324.004, 45.853 324.482, 52.500 324.489 C 59.174 324.497, 61.495 324.035, 66.500 321.703 C 71.749 319.256, 78.029 313.386, 116.682 274.787 C 145.598 245.911, 161.716 229.083, 163.331 226.083 C 164.688 223.562, 166.319 218.944, 166.956 215.819 C 167.825 211.552, 167.830 208.580, 166.977 203.874 C 166.352 200.428, 164.924 195.784, 163.803 193.554 C 162.534 191.030, 145.163 172.840, 117.761 145.343 C 88.799 116.280, 72.175 100.329, 69.128 98.679 C 66.583 97.301, 61.830 95.684, 58.566 95.087 C 55.303 94.489, 52.153 94.038, 51.566 94.084 C 50.980 94.130, 48.013 94.704, 44.972 95.359 M 361.972 95.359 C 358.932 96.014, 354.432 97.743, 351.972 99.202 C 349.513 100.661, 327.837 121.574, 303.805 145.677 C 265.513 184.081, 259.767 190.242, 257.333 195.500 C 255.029 200.479, 254.556 202.861, 254.556 209.500 C 254.556 216.129, 255.031 218.529, 257.325 223.500 C 259.759 228.776, 265.476 234.891, 304.725 274.194 C 344.296 313.819, 350.046 319.204, 355.429 321.684 C 360.463 324.003, 362.867 324.482, 369.500 324.489 C 376.065 324.497, 378.508 324.026, 383.120 321.864 C 386.211 320.415, 390.633 317.519, 392.948 315.428 C 395.262 313.338, 398.227 309.511, 399.538 306.925 C 400.848 304.340, 402.342 299.586, 402.857 296.362 C 403.390 293.030, 403.436 288.255, 402.965 285.297 C 402.509 282.436, 401.196 277.971, 400.048 275.375 C 398.447 271.756, 390.855 263.516, 367.501 240.050 L 337.043 209.445 367.054 179.472 C 389.613 156.942, 397.686 148.239, 399.566 144.422 C 400.941 141.630, 402.455 136.905, 402.930 133.922 C 403.439 130.733, 403.407 126.077, 402.854 122.617 C 402.337 119.381, 401.202 115.331, 400.332 113.617 C 399.462 111.902, 397.204 108.590, 395.313 106.256 C 393.422 103.921, 389.790 100.789, 387.242 99.296 C 384.693 97.802, 379.884 96.009, 376.554 95.311 C 373.224 94.613, 369.825 94.070, 369 94.105 C 368.175 94.139, 365.013 94.704, 361.972 95.359 M 200.396 254.418 C 198.139 255.125, 194.314 257.082, 191.896 258.769 C 189.478 260.455, 167.868 281.560, 143.873 305.668 C 102.757 346.977, 100.121 349.841, 98.075 355.416 C 96.677 359.225, 95.896 363.688, 95.883 367.944 C 95.869 372.372, 96.598 376.528, 98.090 380.528 C 99.727 384.913, 101.850 388.001, 106.082 392.149 C 110.019 396.008, 113.624 398.464, 117.460 399.899 C 121.180 401.291, 125.413 402, 130 402 C 134.587 402, 138.879 401.281, 142.712 399.871 C 148.038 397.911, 150.994 395.260, 179.743 366.663 L 210.986 335.585 242.243 366.653 C 270.954 395.189, 273.971 397.894, 279.288 399.860 C 283.137 401.284, 287.394 402, 292 402 C 296.650 402, 300.824 401.290, 304.705 399.837 C 308.769 398.317, 312.146 396.014, 316.080 392.080 C 320.068 388.092, 322.324 384.764, 323.934 380.493 C 325.786 375.582, 326.120 373.048, 325.787 366.459 C 325.498 360.747, 324.700 356.981, 323.033 353.459 C 321.215 349.617, 310.978 338.730, 277.593 305.134 C 253.892 281.282, 232.250 260.329, 229.500 258.571 C 226.750 256.814, 222.648 254.841, 220.384 254.188 C 218.120 253.535, 213.620 253.030, 210.384 253.067 C 207.148 253.104, 202.653 253.712, 200.396 254.418" stroke="none" fill="#4267ce" fill-rule="evenodd"/><path d="M 119 18.545 C 116.525 19.318, 111.947 21.966, 108.827 24.429 C 104.387 27.935, 102.355 30.526, 99.471 36.361 C 95.966 43.454, 95.804 44.220, 96.144 52.158 C 96.425 58.733, 97.075 61.665, 99.214 66 C 101.423 70.476, 110.361 79.905, 147.214 116.635 C 190.198 159.476, 192.805 161.883, 198.500 163.972 C 203.267 165.720, 206.145 166.104, 212.500 165.836 C 218.711 165.575, 221.730 164.895, 226 162.794 C 230.491 160.584, 239.669 151.871, 276.038 115.294 C 309.854 81.284, 321.169 69.296, 323.038 65.500 C 325.131 61.249, 325.500 59.077, 325.497 51 C 325.495 42.911, 325.140 40.834, 323.110 37.020 C 321.798 34.556, 319.349 30.828, 317.668 28.736 C 315.986 26.644, 312.561 23.680, 310.055 22.150 C 307.550 20.620, 303.357 18.775, 300.737 18.050 C 297.858 17.254, 293.255 16.928, 289.095 17.225 C 284.865 17.528, 280.344 18.607, 277.357 20.026 C 273.747 21.742, 264.601 30.177, 241.728 52.889 L 210.956 83.443 181.228 53.824 C 164.878 37.534, 149.700 23.122, 147.500 21.797 C 145.300 20.473, 141.648 18.852, 139.384 18.195 C 137.120 17.538, 132.620 17.031, 129.384 17.070 C 126.148 17.108, 121.475 17.772, 119 18.545 M 44.972 95.359 C 41.932 96.014, 37.348 97.778, 34.785 99.280 C 32.222 100.782, 28.530 103.957, 26.581 106.335 C 24.633 108.713, 22.062 112.865, 20.870 115.562 C 19.246 119.231, 18.688 122.511, 18.650 128.603 C 18.604 135.784, 18.970 137.492, 21.759 143.121 C 24.460 148.570, 29.298 153.870, 54.939 179.472 L 84.957 209.445 54.505 240.043 C 28.599 266.074, 23.654 271.515, 21.378 276.486 C 19.200 281.243, 18.693 283.836, 18.656 290.415 C 18.618 297.168, 19.063 299.488, 21.356 304.500 C 22.866 307.800, 25.938 312.378, 28.183 314.673 C 30.428 316.968, 35.018 320.114, 38.383 321.663 C 43.466 324.004, 45.853 324.482, 52.500 324.489 C 59.174 324.497, 61.495 324.035, 66.500 321.703 C 71.749 319.256, 78.029 313.386, 116.682 274.787 C 145.598 245.911, 161.716 229.083, 163.331 226.083 C 164.688 223.562, 166.319 218.944, 166.956 215.819 C 167.825 211.552, 167.830 208.580, 166.977 203.874 C 166.352 200.428, 164.924 195.784, 163.803 193.554 C 162.534 191.030, 145.163 172.840, 117.761 145.343 C 88.799 116.280, 72.175 100.329, 69.128 98.679 C 66.583 97.301, 61.830 95.684, 58.566 95.087 C 55.303 94.489, 52.153 94.038, 51.566 94.084 C 50.980 94.130, 48.013 94.704, 44.972 95.359 M 361.972 95.359 C 358.932 96.014, 354.432 97.743, 351.972 99.202 C 349.513 100.661, 327.837 121.574, 303.805 145.677 C 265.513 184.081, 259.767 190.242, 257.333 195.500 C 255.029 200.479, 254.556 202.861, 254.556 209.500 C 254.556 216.129, 255.031 218.529, 257.325 223.500 C 259.759 228.776, 265.476 234.891, 304.725 274.194 C 344.296 313.819, 350.046 319.204, 355.429 321.684 C 360.463 324.003, 362.867 324.482, 369.500 324.489 C 376.065 324.497, 378.508 324.026, 383.120 321.864 C 386.211 320.415, 390.633 317.519, 392.948 315.428 C 395.262 313.338, 398.227 309.511, 399.538 306.925 C 400.848 304.340, 402.342 299.586, 402.857 296.362 C 403.390 293.030, 403.436 288.255, 402.965 285.297 C 402.509 282.436, 401.196 277.971, 400.048 275.375 C 398.447 271.756, 390.855 263.516, 367.501 240.050 L 337.043 209.445 367.054 179.472 C 389.613 156.942, 397.686 148.239, 399.566 144.422 C 400.941 141.630, 402.455 136.905, 402.930 133.922 C 403.439 130.733, 403.407 126.077, 402.854 122.617 C 402.337 119.381, 401.202 115.331, 400.332 113.617 C 399.462 111.902, 397.204 108.590, 395.313 106.256 C 393.422 103.921, 389.790 100.789, 387.242 99.296 C 384.693 97.802, 379.884 96.009, 376.554 95.311 C 373.224 94.613, 369.825 94.070, 369 94.105 C 368.175 94.139, 365.013 94.704, 361.972 95.359 M 200.396 254.418 C 198.139 255.125, 194.314 257.082, 191.896 258.769 C 189.478 260.455, 167.868 281.560, 143.873 305.668 C 102.757 346.977, 100.121 349.841, 98.075 355.416 C 96.677 359.225, 95.896 363.688, 95.883 367.944 C 95.869 372.372, 96.598 376.528, 98.090 380.528 C 99.727 384.913, 101.850 388.001, 106.082 392.149 C 110.019 396.008, 113.624 398.464, 117.460 399.899 C 121.180 401.291, 125.413 402, 130 402 C 134.587 402, 138.879 401.281, 142.712 399.871 C 148.038 397.911, 150.994 395.260, 179.743 366.663 L 210.986 335.585 242.243 366.653 C 270.954 395.189, 273.971 397.894, 279.288 399.860 C 283.137 401.284, 287.394 402, 292 402 C 296.650 402, 300.824 401.290, 304.705 399.837 C 308.769 398.317, 312.146 396.014, 316.080 392.080 C 320.068 388.092, 322.324 384.764, 323.934 380.493 C 325.786 375.582, 326.120 373.048, 325.787 366.459 C 325.498 360.747, 324.700 356.981, 323.033 353.459 C 321.215 349.617, 310.978 338.730, 277.593 305.134 C 253.892 281.282, 232.250 260.329, 229.500 258.571 C 226.750 256.814, 222.648 254.841, 220.384 254.188 C 218.120 253.535, 213.620 253.030, 210.384 253.067 C 207.148 253.104, 202.653 253.712, 200.396 254.418" stroke="none" fill="#fbfbfb" fill-rule="evenodd"/></svg>